<?xml version="1.0" encoding="iso-8859-1"?>
<!-- Generator: Adobe Illustrator 16.0.0, SVG Export Plug-In . SVG Version: 6.00 Build 0)  -->
<!DOCTYPE svg PUBLIC "-//W3C//DTD SVG 1.1//EN" "http://www.w3.org/Graphics/SVG/1.1/DTD/svg11.dtd">
<svg version="1.1" id="Capa_1" xmlns="http://www.w3.org/2000/svg" xmlns:xlink="http://www.w3.org/1999/xlink" x="0px" y="0px"
	 width="371.76px" height="371.76px" viewBox="0 0 371.76 371.76" style="enable-background:new 0 0 371.76 371.76;"
	 xml:space="preserve">
<g>
	<g id="Artwork_10_">
		<g id="Layer_5_10_">
			<path d="M260.076,118.437c-27.271,0-52.141,10.007-71.699,26.128c-0.333,0.274-0.518,0.071-0.624-0.02
				c-4.581-3.888-9.509-7.44-14.765-10.611c-2.051-1.254-1.134-2.563-0.892-3.09c0.717-1.558,1.12-3.288,1.12-5.115
				c0-6.798-5.511-12.309-12.308-12.309c0,0-1.14,0-1.52,0c-2.925,0-0.182-3.714-0.182-3.714l19.257-33.218
				c2.664-3.805,2.542-9.941-0.27-13.638l-16.255-26.627c-2.812-3.696-8.912-6.72-13.556-6.72H77.72
				c-4.644,0-10.762,3.01-13.596,6.689L47.948,62.394c-2.833,3.68-2.983,9.811-0.333,13.624l20.904,35.836
				c0,0,1.332,1.564-0.776,1.564c-0.641,0-2.564,0-2.564,0c-6.797,0-12.308,5.511-12.308,12.309c0,1.962,0.465,3.813,1.283,5.456
				c0.202,0.407,0.768,1.268-0.656,2.065C20.678,153.053,0,188.157,0,229.206c0,62.337,50.714,113.052,113.051,113.052
				c27.656,0,53.023-9.983,72.69-26.533c0.449-0.379,1.768-0.786,2.429-0.215c19.812,17.141,44.541,26.293,71.907,26.293
				c61.582,0,111.683-50.103,111.683-111.685C371.759,168.538,321.658,118.437,260.076,118.437z M185.799,282.135
				c-10.211-14.835-16.437-32.679-16.437-52.016c0-20.405,6.776-39.254,18.19-54.426c0.257-0.341,1.095-0.564,1.55,0.06
				c10.881,14.979,16.942,33.571,16.942,53.452c0,19.695-6.156,37.979-16.642,53.029
				C188.83,283.059,186.856,283.671,185.799,282.135z M20.057,229.207c0-51.277,41.717-92.994,92.994-92.994
				c22.074,0,42.124,8.048,58.339,20.628c1.927,1.196,1.654,3.362,1.183,3.955c-15.131,19.059-24.179,43.154-24.179,69.324
				c0,25.388,9.298,48.251,22.845,67.599c1.368,1.953,0.516,3.56-0.183,4.118c-15.914,12.734-36.083,20.363-58.004,20.363
				C61.774,322.2,20.057,280.483,20.057,229.207z M260.076,320.833c-21.558,0-41.555-7.245-56.961-20.169
				c-1.041-0.874-0.844-2.076-0.168-2.987c14.226-19.235,23.154-42.753,23.154-68.471c0-25.461-7.811-48.363-21.57-66.816
				c-0.613-0.824-1.174-3.053,0.457-4.295c15.322-11.665,34.386-18.69,55.089-18.69c50.019,0,90.713,40.693,90.713,90.714
				C350.79,280.139,310.095,320.833,260.076,320.833z"/>
		</g>
	</g>
</g>
<g>
</g>
<g>
</g>
<g>
</g>
<g>
</g>
<g>
</g>
<g>
</g>
<g>
</g>
<g>
</g>
<g>
</g>
<g>
</g>
<g>
</g>
<g>
</g>
<g>
</g>
<g>
</g>
<g>
</g>
</svg>
